<?xml version="1.0" encoding="UTF-8"?><svg id="Layer_2" xmlns="http://www.w3.org/2000/svg" viewBox="0 0 266.24 266.24"><defs><style>.cls-1{stroke-width:.58px;}.cls-1,.cls-2,.cls-3{fill:#010101;}.cls-1,.cls-2,.cls-3,.cls-4{stroke:#231f20;stroke-miterlimit:10;}.cls-3{stroke-width:.84px;}.cls-4{fill:#58bc72;stroke-width:5px;}</style></defs><g id="Layer_1-2"><circle class="cls-4" cx="133.12" cy="133.12" r="130.62"/><path class="cls-2" d="m23.83,113.33c6.33-7.19,14.13-12.83,23.81-18.22h0c14.67-7.99,34.57-13.48,54.25-11.33h0c37.34,4.25,58.2,39.04,108.72,27.98h0s0,0,.01,0h0c10.68-2.43,20.78-8.07,25-15.38h0s.01-.02.02-.03h0c18.84-34.54-50.5-41.7-63.58-16.01h0c-.45.81.76,2.28,1.2,1.5h0c12.61-20.4,73.36-15.58,58.34,9.38l.02-.03c-3.88,6.16-13.41,11.16-23.61,13.31h.01c-48.74,9.87-69.69-22.93-107.34-26.11h0s0,0,0,0h0c-20.23-1.57-40.16,4.82-54.55,13.59h0s0,0,0,0h0c-9.7,6.02-17.31,12.24-23.26,19.88h0c-.49.59.51,2.04.98,1.47h0"/><path class="cls-3" d="m41.47,166.68c5.43-5.93,12.1-10.58,20.4-15.03h0c12.57-6.59,29.62-11.11,46.48-9.35h0c32,3.5,49.87,32.2,93.16,23.08h0s0,0,.01,0h0c9.16-2.01,17.81-6.66,21.43-12.69h0s.01-.02.01-.02h0c16.14-28.49-43.28-34.39-54.48-13.21h0c-.39.67.65,1.88,1.02,1.24h0c10.81-16.83,62.86-12.85,49.99,7.74v-.02c-3.31,5.08-11.47,9.2-20.21,10.98h.01c-41.77,8.14-59.71-18.91-91.98-21.53h0s0,0,0,0h0c-17.34-1.3-34.41,3.98-46.75,11.21h0s0,0,0,0h0c-8.31,4.96-14.83,10.09-19.93,16.4h0c-.42.49.43,1.68.84,1.21h0"/><path class="cls-1" d="m62.01,210.31c4.21-3.65,9.39-6.51,15.83-9.25h0c9.75-4.06,22.99-6.84,36.07-5.75h0c24.83,2.16,38.7,19.82,72.29,14.21h0s0,0,0,0h0c7.1-1.24,13.82-4.1,16.63-7.81h0s0,0,.01-.01h0c12.53-17.54-33.58-21.17-42.27-8.13h0c-.3.41.51,1.16.8.76h0c8.39-10.36,48.78-7.91,38.79,4.76v-.02c-2.57,3.13-8.9,5.66-15.69,6.76h0c-32.41,5.01-46.33-11.64-71.37-13.25h0s0,0,0,0h0c-13.45-.8-26.7,2.45-36.27,6.9h0s0,0,0,0h0c-6.45,3.05-11.51,6.21-15.46,10.09h0c-.33.3.34,1.04.65.75h0"/></g></svg>