<?xml version="1.0" encoding="UTF-8"?><svg id="Layer_2" xmlns="http://www.w3.org/2000/svg" viewBox="0 0 15.7 15.7"><defs><style>.cls-1{stroke-width:.05px;}.cls-1,.cls-2,.cls-3,.cls-4{stroke:#231f20;stroke-miterlimit:10;}.cls-1,.cls-2,.cls-4{fill:#020202;}.cls-2{stroke-width:.03px;}.cls-3{fill:#5abc73;stroke-width:.29px;}.cls-4{stroke-width:.06px;}</style></defs><g id="Layer_1-2"><g id="Layer_1-2"><circle class="cls-3" cx="7.85" cy="7.85" r="7.7"/><path class="cls-4" d="m1.41,6.68c.37-.42.83-.76,1.4-1.07h0c.86-.47,2.04-.79,3.2-.67h0c2.2.25,3.43,2.3,6.41,1.65h0c.63-.14,1.23-.48,1.47-.91h0s0,0,0,0h0c1.11-2.04-2.98-2.46-3.75-.94h0s.04.13.07.09h0c.74-1.2,4.33-.92,3.44.55h0c-.23.36-.79.66-1.39.78h0c-2.87.58-4.11-1.35-6.33-1.54h0c-1.19-.09-2.37.28-3.22.8h0c-.57.35-1.02.72-1.37,1.17h0s.03.12.06.09h0"/><path class="cls-1" d="m2.45,9.83c.32-.35.71-.62,1.2-.89h0c.74-.39,1.75-.66,2.74-.55h0c1.89.21,2.94,1.9,5.49,1.36h0c.54-.12,1.05-.39,1.26-.75h0c.95-1.68-2.55-2.03-3.21-.78h0s.04.11.06.07h0c.64-.99,3.71-.76,2.95.46h0c-.2.3-.68.54-1.19.65h0c-2.46.48-3.52-1.11-5.42-1.27h0c-1.02-.08-2.03.23-2.76.66h0c-.49.29-.87.59-1.18.97h0s.03.1.05.07h0"/><path class="cls-2" d="m3.66,12.4c.25-.22.55-.38.93-.55h0c.57-.24,1.36-.4,2.13-.34h0c1.46.13,2.28,1.17,4.26.84h0c.42-.07.81-.24.98-.46h0c.74-1.03-1.98-1.25-2.49-.48h0s.03.07.05.04h0c.49-.61,2.88-.47,2.29.28h0c-.15.18-.52.33-.93.4h0c-1.91.3-2.73-.69-4.21-.78h0c-.79-.05-1.57.14-2.14.41h0c-.38.18-.68.37-.91.59h0s.02.06.04.04h0"/></g></g></svg>